<?xml version="1.0" encoding="UTF-8" standalone="no"?>
<!-- Created with Inkscape (http://www.inkscape.org/) -->

<svg
   xmlns:dc="http://purl.org/dc/elements/1.1/"
   xmlns:cc="http://creativecommons.org/ns#"
   xmlns:rdf="http://www.w3.org/1999/02/22-rdf-syntax-ns#"
   xmlns:svg="http://www.w3.org/2000/svg"
   xmlns="http://www.w3.org/2000/svg"
   xmlns:sodipodi="http://sodipodi.sourceforge.net/DTD/sodipodi-0.dtd"
   xmlns:inkscape="http://www.inkscape.org/namespaces/inkscape"
   version="1.1"
   id="svg4491"
   xml:space="preserve"
   width="2112"
   height="1632"
   viewBox="0 0 2112 1632"
   sodipodi:docname="hebel.svg"
   inkscape:version="0.92.4 (5da689c313, 2019-01-14)"><metadata
     id="metadata4497"><rdf:RDF><cc:Work
         rdf:about=""><dc:format>image/svg+xml</dc:format><dc:type
           rdf:resource="http://purl.org/dc/dcmitype/StillImage" /><dc:title></dc:title></cc:Work></rdf:RDF></metadata><defs
     id="defs4495" /><sodipodi:namedview
     pagecolor="#ffffff"
     bordercolor="#666666"
     borderopacity="1"
     objecttolerance="10"
     gridtolerance="10"
     guidetolerance="10"
     inkscape:pageopacity="0"
     inkscape:pageshadow="2"
     inkscape:window-width="1920"
     inkscape:window-height="1017"
     id="namedview4493"
     showgrid="false"
     inkscape:zoom="0.28921569"
     inkscape:cx="626.80443"
     inkscape:cy="1359.7013"
     inkscape:window-x="-8"
     inkscape:window-y="-8"
     inkscape:window-maximized="1"
     inkscape:current-layer="g4499" /><g
     id="g4499"
     inkscape:groupmode="layer"
     inkscape:label="hebel"
     transform="matrix(1.3333333,0,0,-1.3333333,0,1632)"><g
       id="g5115"
       style="stroke:#ff0000;stroke-width:0.08503937;stroke-miterlimit:2;stroke-dasharray:none"
       transform="translate(-889.33661,636.28826)"><path
         inkscape:connector-curvature="0"
         id="path4545"
         style="fill:none;stroke:#ff0000;stroke-width:0.08503937;stroke-linecap:butt;stroke-linejoin:miter;stroke-miterlimit:2;stroke-dasharray:none;stroke-opacity:1"
         d="M 1117.6141,562.35889 919.18896,406.45334" /><path
         inkscape:connector-curvature="0"
         id="path4547"
         style="fill:none;stroke:#ff0000;stroke-width:0.08503937;stroke-linecap:butt;stroke-linejoin:miter;stroke-miterlimit:2;stroke-dasharray:none;stroke-opacity:1"
         d="M 943.70728,375.24829 1142.1324,531.15381" /><path
         inkscape:connector-curvature="0"
         id="path4549"
         style="fill:none;stroke:#ff0000;stroke-width:0.08503937;stroke-linecap:butt;stroke-linejoin:miter;stroke-miterlimit:2;stroke-dasharray:none;stroke-opacity:1"
         d="m 919.18896,406.45334 c -8.617,-6.77051 -10.11389,-19.24463 -3.34338,-27.86167 m 0,0 c 6.77051,-8.61703 19.24463,-10.11392 27.8617,-3.34338" /><path
         inkscape:connector-curvature="0"
         id="path4551"
         style="fill:none;stroke:#ff0000;stroke-width:0.08503937;stroke-linecap:butt;stroke-linejoin:miter;stroke-miterlimit:2;stroke-dasharray:none;stroke-opacity:1"
         d="m 1145.4758,559.01544 c 6.7705,-8.617 5.2737,-21.09112 -3.3434,-27.86163 m -24.5183,31.20508 c 8.6171,6.7705 21.0912,5.27362 27.8617,-3.34345" /><path
         inkscape:connector-curvature="0"
         id="path4553"
         style="fill:none;stroke:#ff0000;stroke-width:0.08503937;stroke-linecap:butt;stroke-linejoin:miter;stroke-miterlimit:2;stroke-dasharray:none;stroke-opacity:1"
         d="m 1140.3614,546.75635 c 0,5.79242 -4.6956,10.48816 -10.4881,10.48816 -5.7925,0 -10.4882,-4.69574 -10.4882,-10.48816 0,-5.79248 4.6957,-10.48822 10.4882,-10.48822 5.7925,0 10.4881,4.69574 10.4881,10.48822" /><path
         inkscape:connector-curvature="0"
         id="path4555"
         style="fill:none;stroke:#ff0000;stroke-width:0.08503937;stroke-linecap:butt;stroke-linejoin:miter;stroke-miterlimit:2;stroke-dasharray:none;stroke-opacity:1"
         d="m 941.93628,390.85083 c 0,5.79245 -4.69568,10.48816 -10.48816,10.48816 -5.79248,0 -10.48822,-4.69571 -10.48822,-10.48816 0,-5.79248 4.69574,-10.48819 10.48822,-10.48819 5.79248,0 10.48816,4.69571 10.48816,10.48819" /><path
         inkscape:connector-curvature="0"
         id="path4557"
         style="fill:none;stroke:#ff0000;stroke-width:0.08503937;stroke-linecap:butt;stroke-linejoin:miter;stroke-miterlimit:2;stroke-dasharray:none;stroke-opacity:1"
         d="m 1038.3142,468.80356 c 0,4.22696 -3.4265,7.65356 -7.6534,7.65356 -4.227,0 -7.6537,-3.4266 -7.6537,-7.65356 0,-4.22693 3.4267,-7.65354 7.6537,-7.65354 4.2269,0 7.6534,3.42661 7.6534,7.65354" /><path
         inkscape:connector-curvature="0"
         id="path4559"
         style="fill:none;stroke:#ff0000;stroke-width:0.08503937;stroke-linecap:butt;stroke-linejoin:miter;stroke-miterlimit:2;stroke-dasharray:none;stroke-opacity:1"
         d="m 989.76141,432.88214 c 0,2.66141 -2.15747,4.81891 -4.81891,4.81891 -2.66137,0 -4.81884,-2.1575 -4.81884,-4.81891 0,-2.66141 2.15747,-4.81891 4.81884,-4.81891 2.66144,0 4.81891,2.1575 4.81891,4.81891" /><path
         inkscape:connector-curvature="0"
         id="path4561"
         style="fill:none;stroke:#ff0000;stroke-width:0.08503937;stroke-linecap:butt;stroke-linejoin:miter;stroke-miterlimit:2;stroke-dasharray:none;stroke-opacity:1"
         d="m 1081.1978,504.72501 c 0,2.6614 -2.1575,4.8189 -4.8189,4.8189 -2.6614,0 -4.8188,-2.1575 -4.8188,-4.8189 0,-2.66141 2.1574,-4.81891 4.8188,-4.81891 2.6614,0 4.8189,2.1575 4.8189,4.81891" /></g></g></svg>